<svg width="28" height="28" viewBox="0 0 28 28" fill="none" xmlns="http://www.w3.org/2000/svg">
<path id="Vector" d="M14.6974 6.54466C17.6192 6.54466 18.7026 7.78721 18.8011 9.6145H22.4288C22.3139 7.10015 20.5903 4.79046 17.1596 4.04492V0.843506H12.2352V4.00107C11.595 4.11801 11.004 4.30805 10.4295 4.52733L12.9082 6.73469C13.4334 6.61775 14.0408 6.54466 14.6974 6.54466ZM3.15775 2.18839L0.843262 4.24958L6.48997 9.27828C6.48997 12.3189 9.05068 13.9854 12.9082 14.9941L18.6698 20.1251C18.1117 20.8414 16.9462 21.4554 14.6974 21.4554C11.3159 21.4554 9.98633 20.1105 9.80577 18.3855H6.1945C6.39148 21.5869 9.08351 23.385 12.2352 23.9843V27.1565H17.1596V24.0136C18.7354 23.7504 20.1635 23.2096 21.1977 22.3763L24.8418 25.6216L27.1563 23.5604L3.15775 2.18839Z" fill="#FEFEFE"/>
</svg>
