<svg width="32" height="32" viewBox="0 0 32 32" fill="none" xmlns="http://www.w3.org/2000/svg">
<g id="lsicon:marketing-filled">
<path id="Vector" fill-rule="evenodd" clip-rule="evenodd" d="M16 2C13.0826 2 10.2847 3.15893 8.22183 5.22183C6.15893 7.28473 5 10.0826 5 13V15C5 16.056 5.43 17.07 5.886 17.852C6.348 18.65 6.904 19.318 7.292 19.708L10.126 22.54L11.28 26H20.72L21.874 22.54L24.708 19.708C25.096 19.318 25.652 18.648 26.114 17.852C26.57 17.07 27 16.056 27 15V13C27 10.0826 25.8411 7.28473 23.7782 5.22183C21.7153 3.15893 18.9174 2 16 2ZM18.708 10.708L17.292 9.292L13.586 13L15.586 15L13.292 17.292L14.708 18.708L18.414 15L16.414 13L18.708 10.708Z" fill="#FEFEFE"/>
<path id="Vector_2" d="M20 30V28H12V30H20Z" fill="#FEFEFE"/>
</g>
</svg>
