<svg width="32" height="32" viewBox="0 0 32 32" fill="none" xmlns="http://www.w3.org/2000/svg">
<g id="ant-design:code-filled">
<path id="Vector" d="M27.5 3.5H4.5C3.94687 3.5 3.5 3.94687 3.5 4.5V27.5C3.5 28.0531 3.94687 28.5 4.5 28.5H27.5C28.0531 28.5 28.5 28.0531 28.5 27.5V4.5C28.5 3.94687 28.0531 3.5 27.5 3.5ZM16.0344 16.1906L10.0344 21.2219C9.87188 21.3594 9.625 21.2437 9.625 21.0312V19.0719C9.625 19 9.65937 18.9281 9.71562 18.8813L13.1469 16L9.71562 13.1187C9.6869 13.0961 9.66379 13.0671 9.64807 13.034C9.63235 13.001 9.62446 12.9647 9.625 12.9281V10.9688C9.625 10.7562 9.87188 10.6406 10.0344 10.7781L16.0344 15.8062C16.1562 15.9062 16.1562 16.0906 16.0344 16.1906ZM22.375 21.0312C22.375 21.1688 22.2687 21.2812 22.1406 21.2812H16.3594C16.2312 21.2812 16.125 21.1688 16.125 21.0312V19.5312C16.125 19.3938 16.2312 19.2812 16.3594 19.2812H22.1406C22.2687 19.2812 22.375 19.3938 22.375 19.5312V21.0312Z" fill="#FEFEFE"/>
</g>
</svg>
