<svg width="32" height="32" viewBox="0 0 32 32" fill="none" xmlns="http://www.w3.org/2000/svg">
<g id="simple-icons:nginxproxymanager">
<path id="Vector" d="M16.0108 0C11.361 2.65186 6.73063 5.33771 2.12012 8.05733V24C6.89078 26.7827 11.7708 29.6987 16.0108 32C21.2481 28.9773 24.9574 26.8427 29.8801 24V19.9427L28.4868 20.7427V23.1427L26.4268 24.3427L24.3468 23.1427V20.7427L26.4268 19.5627V19.56L26.7841 19.768C27.0511 19.0112 27.2318 18.2267 27.3228 17.4293V17.4267C27.3832 16.9526 27.4153 16.4753 27.4188 15.9973C27.4151 15.495 27.3831 14.9933 27.3228 14.4947C27.194 13.596 26.9636 12.7148 26.6361 11.868V11.864C26.2221 10.7809 25.6364 9.77153 24.9014 8.87467C24.6491 8.54615 24.3752 8.23479 24.0814 7.94267C23.7238 7.59836 23.3472 7.2743 22.9534 6.972C22.1809 6.36131 21.3274 5.86055 20.4174 5.484C20.1632 5.37317 19.9022 5.27832 19.6361 5.2V3.924C20.1837 4.08133 20.717 4.27778 21.2361 4.51333C21.9961 4.85797 22.719 5.27927 23.3934 5.77067C23.9428 6.16647 24.4591 6.60613 24.9374 7.08533C25.301 7.45511 25.645 7.84267 25.9694 8.248C26.6788 9.16267 27.2628 10.168 27.7054 11.24H27.7028C28.1533 12.3546 28.4429 13.5277 28.5628 14.724C28.617 15.1471 28.6419 15.5724 28.6374 16C28.6374 16.4187 28.6188 16.8187 28.5801 17.2187C28.4708 18.336 28.0868 19.6 27.8574 20.3827L28.4868 20.7427L29.8801 19.94V11.9813L28.1428 10.992V10.9893L29.8801 11.9813V8C25.1334 5.25733 20.2641 2.46133 16.0108 0ZM26.7841 19.768C26.7574 19.8373 26.7881 19.7707 26.7894 19.7707L26.7841 19.768ZM16.0468 1.61733L18.1268 2.81733V5.21867L16.0468 6.39867L13.9868 5.21867H13.9841V4.78133C13.1866 4.92684 12.4071 5.1575 11.6588 5.46933C10.7597 5.83116 9.91273 6.31092 9.14012 6.896L9.13878 6.89867C8.70981 7.21189 8.30835 7.56115 7.93878 7.94267C7.65005 8.22727 7.37592 8.52632 7.11745 8.83867C6.39689 9.73837 5.81284 10.7393 5.38412 11.8093L5.68812 11.9787L7.40412 10.9893L9.00812 11.904C11.5801 10.4213 13.5374 9.28933 16.0108 7.88533L16.0468 7.904C18.6148 9.38933 20.5774 10.5107 23.0308 11.9427C23.0681 14.6053 23.0494 17.3613 23.0494 20.0573C20.5508 21.5027 18.0454 22.9373 16.0094 24.1147C13.6518 22.7706 11.2989 21.4181 8.95078 20.0573V11.9427L9.00812 11.9067L7.40412 10.9893L5.68812 11.9813L5.38412 11.8093H5.38012C5.02945 12.69 4.792 13.6116 4.67345 14.552C4.61389 15.032 4.58278 15.5147 4.58012 16C4.58278 16.4596 4.61389 16.916 4.67345 17.3693V17.372C4.69345 17.6587 4.75345 17.944 4.80945 18.2293L3.70278 18.8747C3.56771 18.3505 3.47848 17.8156 3.43612 17.276C3.38165 16.8529 3.35626 16.4266 3.36012 16C3.36012 15.5613 3.39745 15.104 3.43478 14.6667C3.56698 13.4764 3.86219 12.3099 4.31212 11.2C4.75012 10.1271 5.33481 9.12022 6.04945 8.208C6.37345 7.808 6.71612 7.448 7.06012 7.08533C7.55434 6.58933 8.08901 6.13911 8.66412 5.73467C7.04367 5.62356 7.04367 5.62267 8.66412 5.732C9.35104 5.2405 10.0859 4.81969 10.8574 4.476C11.8584 4.03784 12.9094 3.72438 13.9868 3.54267L13.9841 2.82L12.5934 2.01867L13.9868 2.81867L16.0468 1.61733ZM16.0468 2.648L14.8641 3.33333V4.70267L16.0468 5.39067L17.2294 4.70267V3.33333L16.0468 2.648ZM16.0068 11.8853C14.7601 12.5947 13.4894 13.3307 12.4214 13.9427V18.0573C13.6655 18.7707 14.9441 19.5173 16.0108 20.1333C17.2455 19.38 18.4974 18.676 19.5788 18.0573V13.9427C18.3188 13.22 17.1014 12.5107 16.0068 11.8853ZM5.68678 19.5627L7.74812 20.7427V23.1427L7.30945 23.3907C7.50412 23.6271 7.71345 23.8493 7.93745 24.0573C8.30812 24.4413 8.70901 24.7902 9.14012 25.104C9.8874 25.6805 10.7079 26.1554 11.5801 26.516H11.5828C12.4606 26.8912 13.3849 27.1468 14.3308 27.276C14.8872 27.3533 15.4463 27.3916 16.0081 27.3907C16.6027 27.3934 17.1966 27.3489 17.7841 27.2573C18.7083 27.1137 19.6115 26.8576 20.4734 26.4947C21.3626 26.1202 22.1969 25.6268 22.9534 25.028C23.1828 24.876 23.3734 24.7053 23.5828 24.5347L24.6894 25.1613C24.2914 25.5366 23.8706 25.8871 23.4294 26.2107L24.6908 26.932L26.4268 25.924L24.6908 26.9347L23.4294 26.2107C22.7414 26.704 22.0068 27.1307 21.2374 27.484L21.2348 27.4867C20.1383 27.985 18.9764 28.3244 17.7841 28.4947C17.1957 28.5711 16.6046 28.6093 16.0108 28.6093C15.4495 28.6068 14.8887 28.5748 14.3308 28.5133V28.516C13.1312 28.3548 11.9613 28.0206 10.8574 27.524C10.0626 27.1751 9.30797 26.741 8.60678 26.2293C7.72748 25.5956 6.93223 24.8528 6.24012 24.0187H6.23745L5.68812 24.344L3.60812 23.144V20.7427L5.68678 19.5627ZM5.68678 20.5707L4.50545 21.2573V22.628L5.68812 23.3147L6.86945 22.628V21.2573L5.68678 20.5707ZM26.4268 20.5707L25.2241 21.2573V22.628L26.4268 23.3147L27.6094 22.628V21.2573L26.4268 20.5707Z" fill="#FEFEFE"/>
</g>
</svg>
