<svg width="32" height="32" viewBox="0 0 32 32" fill="none" xmlns="http://www.w3.org/2000/svg">
<g id="carbon:qr-code">
<path id="Vector" d="M24 28V26H26V28H24ZM18 24V22H20V24H18ZM18 30H22V28H20V26H18V30ZM26 26V22H28V26H26ZM28 26H30V30H26V28H28V26ZM26 20V18H30V22H28V20H26ZM24 20H22V24H20V26H24V20ZM18 20V18H22V20H18ZM6 22H10V26H6V22Z" fill="#FEFEFE"/>
<path id="Vector_2" d="M14 30H2V18H14V30ZM4 28H12V20H4V28ZM22 6H26V10H22V6Z" fill="#FEFEFE"/>
<path id="Vector_3" d="M30 14H18V2H30V14ZM20 12H28V4H20V12ZM6 6H10V10H6V6Z" fill="#FEFEFE"/>
<path id="Vector_4" d="M14 14H2V2H14V14ZM4 12H12V4H4V12Z" fill="#FEFEFE"/>
</g>
</svg>
