<svg width="32" height="32" viewBox="0 0 32 32" fill="none" xmlns="http://www.w3.org/2000/svg">
<g id="tabler:home-filled">
<path id="Vector" d="M16.9429 3.05731L28.9429 15.0573C29.7829 15.8973 29.1882 17.3333 28.0002 17.3333H26.6669V25.3333C26.6669 26.3942 26.2455 27.4116 25.4953 28.1617C24.7452 28.9119 23.7277 29.3333 22.6669 29.3333H21.3335V20C21.3336 18.9797 20.9438 17.998 20.2438 17.2556C19.5439 16.5133 18.5867 16.0665 17.5682 16.0066L17.3335 16H14.6669C13.606 16 12.5886 16.4214 11.8385 17.1716C11.0883 17.9217 10.6669 18.9391 10.6669 20V29.3333H9.33355C8.27268 29.3333 7.25527 28.9119 6.50512 28.1617C5.75498 27.4116 5.33355 26.3942 5.33355 25.3333V17.3333H4.00021C2.81355 17.3333 2.21755 15.8973 3.05755 15.0573L15.0575 3.05731C15.3076 2.80735 15.6467 2.66693 16.0002 2.66693C16.3538 2.66693 16.6928 2.80735 16.9429 3.05731ZM17.3335 18.6666C17.6872 18.6666 18.0263 18.8071 18.2764 19.0572C18.5264 19.3072 18.6669 19.6464 18.6669 20V29.3333H13.3335V20C13.3336 19.6734 13.4535 19.3582 13.6705 19.1142C13.8875 18.8701 14.1865 18.7142 14.5109 18.676L14.6669 18.6666H17.3335Z" fill="#FEFEFE"/>
</g>
</svg>
