<svg width="136" height="60" viewBox="0 0 136 60" fill="none" xmlns="http://www.w3.org/2000/svg">
<g id="Untitled design 3" clip-path="url(#clip0_125_1324)">
<g id="Clip path group">
<mask id="mask0_125_1324" style="mask-type:luminance" maskUnits="userSpaceOnUse" x="21" y="19" width="15" height="18">
<g id="2f98f584dd">
<path id="Vector" d="M21.3164 19.3978H35.7678V36.78H21.3164V19.3978Z" fill="white"/>
</g>
</mask>
<g mask="url(#mask0_125_1324)">
<g id="Group">
<g id="Clip path group_2">
<mask id="mask1_125_1324" style="mask-type:luminance" maskUnits="userSpaceOnUse" x="21" y="19" width="15" height="18">
<g id="b2d56bd72d">
<path id="Vector_2" d="M26.7494 23.3138H30.3307V29.6827H26.7494V23.3138ZM23.1666 21.4019H21.376V36.6893H27.3458V32.8671H29.7357V36.6893H35.7056V32.8671H33.3156V30.3205H35.7041V19.493H23.1681L23.1666 21.4019Z" fill="white"/>
</g>
</mask>
<g mask="url(#mask1_125_1324)">
<g id="Group_2">
<path id="Vector_3" d="M0 9.55579H36.4848V37.5462H0V9.55579Z" fill="#FEFEFE"/>
</g>
</g>
</g>
</g>
</g>
</g>
<g id="Clip path group_3">
<mask id="mask2_125_1324" style="mask-type:luminance" maskUnits="userSpaceOnUse" x="3" y="21" width="6" height="13">
<g id="54e989b080">
<path id="Vector_4" d="M3.58691 21.1449H8.50558V33.8283H3.58691V21.1449Z" fill="white"/>
</g>
</mask>
<g mask="url(#mask2_125_1324)">
<g id="Group_3">
<g id="Clip path group_4">
<mask id="mask3_125_1324" style="mask-type:luminance" maskUnits="userSpaceOnUse" x="3" y="21" width="6" height="13">
<g id="48a078d42b">
<path id="Vector_5" d="M8.19795 27.612C8.2617 27.6604 8.30278 27.739 8.3042 27.8221L8.45295 33.4792C8.45295 33.5865 8.40053 33.6771 8.30562 33.721C8.2107 33.7633 8.11012 33.7436 8.03503 33.6696L4.13778 29.6342C4.09387 29.5874 4.06695 29.5269 4.06412 29.4559L3.62354 21.2356L4.94954 23.619V24.8871C4.94954 25.085 5.04162 25.2709 5.1932 25.3843L8.19795 27.612Z" fill="white"/>
</g>
</mask>
<g mask="url(#mask3_125_1324)">
<g id="Group_4">
<path id="Vector_6" d="M-0.000488281 9.55579H36.4843V37.5462H-0.000488281V9.55579Z" fill="#FEFEFE"/>
</g>
</g>
</g>
</g>
</g>
</g>
<g id="Clip path group_5">
<mask id="mask4_125_1324" style="mask-type:luminance" maskUnits="userSpaceOnUse" x="3" y="15" width="9" height="10">
<g id="bd66eeab23">
<path id="Vector_7" d="M3.58691 15.0225H11.5812V24.535H3.58691V15.0225Z" fill="white"/>
</g>
</mask>
<g mask="url(#mask4_125_1324)">
<g id="Group_5">
<g id="Clip path group_6">
<mask id="mask5_125_1324" style="mask-type:luminance" maskUnits="userSpaceOnUse" x="3" y="15" width="9" height="10">
<g id="caf4c84a9b">
<path id="Vector_8" d="M8.11038 20.9122C7.8908 20.6871 7.54796 20.6855 7.32555 20.9092L5.1283 23.1264C5.10988 23.1445 5.09713 23.1642 5.08155 23.1838L3.58838 20.5012C3.59263 20.4467 3.60821 20.3923 3.6408 20.35L4.17205 19.6548C4.24288 19.6593 4.3293 19.6623 4.43271 19.6623C4.97813 19.6623 5.91313 19.549 6.46988 18.8507C6.93596 18.2628 7.0323 17.3953 6.75605 16.2724L7.58905 15.1812C7.79021 15.1328 8.75496 15.0814 9.66021 15.0542L11.5415 24.4458L8.11038 20.9122Z" fill="white"/>
</g>
</mask>
<g mask="url(#mask5_125_1324)">
<g id="Group_6">
<path id="Vector_9" d="M0 9.55591H36.4848V37.5464H0V9.55591Z" fill="#FEFEFE"/>
</g>
</g>
</g>
</g>
</g>
</g>
<g id="Clip path group_7">
<mask id="mask6_125_1324" style="mask-type:luminance" maskUnits="userSpaceOnUse" x="9" y="12" width="5" height="13">
<g id="29160516f2">
<path id="Vector_10" d="M9.94092 12.8354H13.7333V24.2069H9.94092V12.8354Z" fill="white"/>
</g>
</mask>
<g mask="url(#mask6_125_1324)">
<g id="Group_7">
<g id="Clip path group_8">
<mask id="mask7_125_1324" style="mask-type:luminance" maskUnits="userSpaceOnUse" x="9" y="12" width="5" height="13">
<g id="e30c083d7d">
<path id="Vector_11" d="M11.808 24.1389L9.98193 15.0164C9.9876 15.0148 9.99327 15.0088 9.99893 15.0058C10.0287 14.9937 10.0542 14.9786 10.0811 14.9619C10.0924 14.9529 10.1052 14.9483 10.1179 14.9393C10.1548 14.9121 10.1888 14.8788 10.2199 14.8425L11.8066 12.8868L13.3989 14.8471C13.4287 14.8818 13.4627 14.9151 13.4995 14.9423C13.5109 14.9514 13.5236 14.9574 13.5364 14.9665C13.5619 14.9831 13.5888 14.9967 13.6171 15.0118C13.6242 15.0148 13.6299 15.0179 13.6369 15.0209L11.808 24.1389Z" fill="white"/>
</g>
</mask>
<g mask="url(#mask7_125_1324)">
<g id="Group_8">
<path id="Vector_12" d="M0 9.55579H36.4848V37.5462H0V9.55579Z" fill="#FEFEFE"/>
</g>
</g>
</g>
</g>
</g>
</g>
<g id="Clip path group_9">
<mask id="mask8_125_1324" style="mask-type:luminance" maskUnits="userSpaceOnUse" x="15" y="21" width="6" height="13">
<g id="72377670ac">
<path id="Vector_13" d="M15.0649 21.1449H20.087V33.8283H15.0649V21.1449Z" fill="white"/>
</g>
</mask>
<g mask="url(#mask8_125_1324)">
<g id="Group_9">
<g id="Clip path group_10">
<mask id="mask9_125_1324" style="mask-type:luminance" maskUnits="userSpaceOnUse" x="15" y="21" width="5" height="13">
<g id="74f0653477">
<path id="Vector_14" d="M19.5529 29.4649C19.5501 29.5314 19.5246 29.5934 19.4793 29.6387L15.5806 33.6741C15.5239 33.733 15.4545 33.7557 15.3823 33.7481C15.3582 33.7436 15.3341 33.7376 15.3114 33.727C15.2179 33.6831 15.1627 33.5925 15.1641 33.4821L15.3143 27.8221C15.3157 27.7389 15.3553 27.6604 15.4191 27.6135L18.4238 25.3873C18.5768 25.2739 18.6675 25.0895 18.6675 24.89V23.622L19.9935 21.2371L19.5529 29.4649Z" fill="white"/>
</g>
</mask>
<g mask="url(#mask9_125_1324)">
<g id="Group_10">
<path id="Vector_15" d="M0 9.55579H36.4848V37.5462H0V9.55579Z" fill="#FEFEFE"/>
</g>
</g>
</g>
</g>
</g>
</g>
<g id="Clip path group_11">
<mask id="mask10_125_1324" style="mask-type:luminance" maskUnits="userSpaceOnUse" x="11" y="15" width="10" height="10">
<g id="4a1540c4b9">
<path id="Vector_16" d="M11.9907 15.0225H20.087V24.535H11.9907V15.0225Z" fill="white"/>
</g>
</mask>
<g mask="url(#mask10_125_1324)">
<g id="Group_11">
<g id="Clip path group_12">
<mask id="mask11_125_1324" style="mask-type:luminance" maskUnits="userSpaceOnUse" x="12" y="15" width="9" height="10">
<g id="e6f71a8718">
<path id="Vector_17" d="M19.975 20.3545C20.0076 20.3968 20.0246 20.4497 20.0274 20.5026L18.5342 23.1868C18.5201 23.1672 18.5073 23.149 18.4903 23.1324L16.2902 20.9122C16.1811 20.8004 16.0395 20.7459 15.8992 20.7459C15.759 20.7459 15.6159 20.8019 15.5068 20.9152L12.0742 24.4518L13.957 15.0557H15.81C15.8836 15.0557 15.9545 15.0904 16.0012 15.1524L16.8824 16.3071C16.6175 17.4119 16.7166 18.2673 17.1771 18.8507C17.7324 19.5489 18.6674 19.6623 19.2142 19.6623C19.3006 19.6623 19.3786 19.6593 19.4423 19.6563L19.975 20.3545Z" fill="white"/>
</g>
</mask>
<g mask="url(#mask11_125_1324)">
<g id="Group_12">
<path id="Vector_18" d="M0 9.55579H36.4848V37.5462H0V9.55579Z" fill="#FEFEFE"/>
</g>
</g>
</g>
</g>
</g>
</g>
<g id="Clip path group_13">
<mask id="mask12_125_1324" style="mask-type:luminance" maskUnits="userSpaceOnUse" x="17" y="10" width="6" height="10">
<g id="cb8511c1b0">
<path id="Vector_19" d="M17.0454 10.3206H22.7517V19.3963H17.0454V10.3206Z" fill="white"/>
</g>
</mask>
<g mask="url(#mask12_125_1324)">
<g id="Group_13">
<g id="Clip path group_14">
<mask id="mask13_125_1324" style="mask-type:luminance" maskUnits="userSpaceOnUse" x="17" y="10" width="6" height="10">
<g id="18bcc44646">
<path id="Vector_20" d="M17.4239 18.6286C18.0557 19.4266 19.3548 19.3253 19.5531 19.3041C21.5435 17.7066 22.6103 16.0305 22.7236 14.3257C22.8455 12.4758 21.7915 11.037 21.2361 10.4143C21.6016 13.1831 17.7355 15.9504 17.2156 16.3071C16.9507 17.3424 17.0215 18.1238 17.4239 18.6286Z" fill="white"/>
</g>
</mask>
<g mask="url(#mask13_125_1324)">
<g id="Group_14">
<path id="Vector_21" d="M0 9.55591H36.4848V37.5464H0V9.55591Z" fill="#FEFEFE"/>
</g>
</g>
</g>
</g>
</g>
</g>
<g id="Clip path group_15">
<mask id="mask14_125_1324" style="mask-type:luminance" maskUnits="userSpaceOnUse" x="0" y="10" width="7" height="10">
<g id="71ad0385b1">
<path id="Vector_22" d="M0.820312 10.3206H6.66123V19.3963H0.820312V10.3206Z" fill="white"/>
</g>
</mask>
<g mask="url(#mask14_125_1324)">
<g id="Group_15">
<g id="Clip path group_16">
<mask id="mask15_125_1324" style="mask-type:luminance" maskUnits="userSpaceOnUse" x="0" y="10" width="7" height="10">
<g id="57f2f30a34">
<path id="Vector_23" d="M6.22499 18.6285C5.59316 19.4265 4.29408 19.3252 4.09574 19.3041C2.10533 17.705 1.03858 16.0305 0.925242 14.3241C0.803409 12.4742 1.85741 11.0369 2.41274 10.4127C2.04724 13.18 5.91333 15.9488 6.43324 16.3055C6.69816 17.3408 6.62733 18.1222 6.22499 18.627" fill="white"/>
</g>
</mask>
<g mask="url(#mask15_125_1324)">
<g id="Group_16">
<path id="Vector_24" d="M0 9.55579H36.4848V37.5462H0V9.55579Z" fill="#FEFEFE"/>
</g>
</g>
</g>
</g>
</g>
</g>
<g id="Clip path group_17">
<mask id="mask16_125_1324" style="mask-type:luminance" maskUnits="userSpaceOnUse" x="4" y="23" width="5" height="11">
<g id="67cb4bf75c">
<path id="Vector_25" d="M4.61133 23.0039H8.50575V33.7134H4.61133V23.0039Z" fill="white"/>
</g>
</mask>
<g mask="url(#mask16_125_1324)">
<g id="Group_17">
<g id="Clip path group_18">
<mask id="mask17_125_1324" style="mask-type:luminance" maskUnits="userSpaceOnUse" x="4" y="23" width="5" height="11">
<g id="797d85ee85">
<path id="Vector_26" d="M8.30622 33.6893C8.39972 33.647 8.45355 33.5563 8.45355 33.4475L8.30338 27.792C8.30197 27.7073 8.26088 27.6287 8.19713 27.5819L5.1938 25.3526C5.04222 25.2393 4.95013 25.0549 4.95013 24.8554V23.5873L4.66113 23.0659V30.1436L8.03563 33.6364C8.11072 33.7135 8.2113 33.7331 8.30622 33.6878" fill="white"/>
</g>
</mask>
<g mask="url(#mask17_125_1324)">
<g id="Group_18">
<path id="Vector_27" d="M0.000488281 9.55579H36.4853V37.5462H0.000488281V9.55579Z" fill="#FEFEFE"/>
</g>
</g>
</g>
</g>
</g>
</g>
<g id="Clip path group_19">
<mask id="mask18_125_1324" style="mask-type:luminance" maskUnits="userSpaceOnUse" x="10" y="19" width="3" height="5">
<g id="835ac1f895">
<path id="Vector_28" d="M10.8799 19.3978H12.8108V23.3319H10.8799V19.3978Z" fill="white"/>
</g>
</mask>
<g mask="url(#mask18_125_1324)">
<g id="Group_19">
<g id="Clip path group_20">
<mask id="mask19_125_1324" style="mask-type:luminance" maskUnits="userSpaceOnUse" x="10" y="19" width="3" height="5">
<g id="6f7dded555">
<path id="Vector_29" d="M10.8843 19.493L11.6493 23.3153H11.9666L12.733 19.493H10.8843Z" fill="white"/>
</g>
</mask>
<g mask="url(#mask19_125_1324)">
<g id="Group_20">
<path id="Vector_30" d="M0 9.55579H36.4848V37.5462H0V9.55579Z" fill="#FEFEFE"/>
</g>
</g>
</g>
</g>
</g>
</g>
<g id="Clip path group_21">
<mask id="mask20_125_1324" style="mask-type:luminance" maskUnits="userSpaceOnUse" x="4" y="19" width="8" height="5">
<g id="05b14b8b9f">
<path id="Vector_31" d="M4.61133 19.3978H11.3759V23.3319H4.61133V19.3978Z" fill="white"/>
</g>
</mask>
<g mask="url(#mask20_125_1324)">
<g id="Group_21">
<g id="Clip path group_22">
<mask id="mask21_125_1324" style="mask-type:luminance" maskUnits="userSpaceOnUse" x="4" y="19" width="8" height="5">
<g id="801737d0c5">
<path id="Vector_32" d="M8.11072 20.879L10.4751 23.3138H11.3209L10.5559 19.4916H6.4518V21.4019H4.66113V22.3934L5.08188 23.1506C5.09605 23.1325 5.11022 23.1113 5.12863 23.0947L7.32588 20.8745C7.5483 20.6523 7.89113 20.6538 8.11072 20.8775" fill="white"/>
</g>
</mask>
<g mask="url(#mask21_125_1324)">
<g id="Group_22">
<path id="Vector_33" d="M0.000488281 9.55591H36.4853V37.5464H0.000488281V9.55591Z" fill="#FEFEFE"/>
</g>
</g>
</g>
</g>
</g>
</g>
<g id="Clip path group_23">
<mask id="mask22_125_1324" style="mask-type:luminance" maskUnits="userSpaceOnUse" x="12" y="19" width="8" height="5">
<g id="67bab8d363">
<path id="Vector_34" d="M12.1958 19.3978H19.0624V23.3319H12.1958V19.3978Z" fill="white"/>
</g>
</mask>
<g mask="url(#mask22_125_1324)">
<g id="Group_23">
<g id="Clip path group_24">
<mask id="mask23_125_1324" style="mask-type:luminance" maskUnits="userSpaceOnUse" x="12" y="19" width="7" height="5">
<g id="a3ef99e3a5">
<path id="Vector_35" d="M15.9018 20.7127C16.0406 20.7127 16.1823 20.7686 16.2913 20.879L18.4914 23.0992C18.507 23.1158 18.5212 23.1354 18.5353 23.1536L18.9887 22.3389V21.4019H17.1966V19.493H13.0613L12.2949 23.3153H13.1463L15.5065 20.885C15.6156 20.7717 15.7587 20.7157 15.8989 20.7157" fill="white"/>
</g>
</mask>
<g mask="url(#mask23_125_1324)">
<g id="Group_24">
<path id="Vector_36" d="M-0.000488281 9.55579H36.4843V37.5462H-0.000488281V9.55579Z" fill="#FEFEFE"/>
</g>
</g>
</g>
</g>
</g>
</g>
<g id="Clip path group_25">
<mask id="mask24_125_1324" style="mask-type:luminance" maskUnits="userSpaceOnUse" x="4" y="21" width="16" height="16">
<g id="d31930440f">
<path id="Vector_37" d="M4.61133 21.0361H19.0627V36.78H4.61133V21.0361Z" fill="white"/>
</g>
</mask>
<g mask="url(#mask24_125_1324)">
<g id="Group_25">
<g id="Clip path group_26">
<mask id="mask25_125_1324" style="mask-type:luminance" maskUnits="userSpaceOnUse" x="4" y="21" width="15" height="16">
<g id="9a87a3b042">
<path id="Vector_38" d="M15.806 33.8888C15.6955 34.0021 15.5567 34.0611 15.4136 34.0611C15.3357 34.0611 15.2592 34.0444 15.1841 34.0097C14.9688 33.9099 14.8385 33.6923 14.8427 33.4429L14.9929 27.7829C14.9971 27.5909 15.0878 27.4095 15.2365 27.3007L18.2413 25.073C18.3065 25.0246 18.3475 24.943 18.3475 24.8584V23.5389C18.3475 23.4679 18.3192 23.3984 18.2696 23.35L16.071 21.1298C15.9746 21.0316 15.8259 21.0346 15.7295 21.1313L13.6102 23.3138H13.6159L13.6045 32.855H10.0331V23.3364L7.8883 21.1268C7.79338 21.0286 7.64463 21.0271 7.5483 21.1253L5.34822 23.344C5.29863 23.3939 5.27172 23.4619 5.27172 23.5344V24.8508C5.27172 24.937 5.31138 25.0171 5.37797 25.0669L8.3813 27.2932C8.53005 27.4035 8.62072 27.5849 8.62638 27.7768L8.77513 33.4338C8.77513 33.4671 8.77372 33.4973 8.77088 33.5291C8.7468 33.7406 8.62355 33.9205 8.43513 34.0082C8.35863 34.0429 8.28213 34.0595 8.20422 34.0595C8.06255 34.0595 7.9223 33.9991 7.81322 33.8873L4.66113 30.6257V34.7774H6.4518V36.6893H17.1986V34.7774H18.9893V30.594L15.806 33.8888Z" fill="white"/>
</g>
</mask>
<g mask="url(#mask25_125_1324)">
<g id="Group_26">
<path id="Vector_39" d="M0.000488281 9.55579H36.4853V37.5462H0.000488281V9.55579Z" fill="#FEFEFE"/>
</g>
</g>
</g>
</g>
</g>
</g>
<g id="Clip path group_27">
<mask id="mask26_125_1324" style="mask-type:luminance" maskUnits="userSpaceOnUse" x="15" y="23" width="5" height="11">
<g id="3c4db779fd">
<path id="Vector_40" d="M15.0649 23.0039H19.0628V33.7195H15.0649V23.0039Z" fill="white"/>
</g>
</mask>
<g mask="url(#mask26_125_1324)">
<g id="Group_27">
<g id="Clip path group_28">
<mask id="mask27_125_1324" style="mask-type:luminance" maskUnits="userSpaceOnUse" x="15" y="23" width="4" height="11">
<g id="2a95dc7157">
<path id="Vector_41" d="M15.3157 27.7905L15.1641 33.449C15.1627 33.5593 15.2179 33.65 15.3114 33.6954C15.3355 33.7074 15.3596 33.7135 15.3823 33.715C15.4545 33.7256 15.5253 33.6999 15.5806 33.6409L18.9877 30.1164V23.01L18.6675 23.5858V24.8539C18.6675 25.0534 18.5768 25.2378 18.4238 25.3511L15.4191 27.5774C15.3553 27.6257 15.3157 27.7043 15.3143 27.7889" fill="white"/>
</g>
</mask>
<g mask="url(#mask27_125_1324)">
<g id="Group_28">
<path id="Vector_42" d="M0 9.55591H36.4848V37.5464H0V9.55591Z" fill="#FEFEFE"/>
</g>
</g>
</g>
</g>
</g>
</g>
<g id="Clip path group_29">
<mask id="mask28_125_1324" style="mask-type:luminance" maskUnits="userSpaceOnUse" x="55" y="43" width="6" height="10">
<g id="8ad870f28d">
<path id="Vector_43" d="M55.2344 43.371H60.4435V52.0296H55.2344V43.371Z" fill="white"/>
</g>
</mask>
<g mask="url(#mask28_125_1324)">
<g id="Group_29">
<g id="Clip path group_30">
<mask id="mask29_125_1324" style="mask-type:luminance" maskUnits="userSpaceOnUse" x="55" y="43" width="6" height="10">
<g id="fa99f03664">
<path id="Vector_44" d="M57.905 44.4668H57.2151C57.0635 44.4668 56.919 44.5302 56.7816 44.6557L56.4642 44.9368C56.3424 45.0441 56.2815 45.1937 56.2815 45.3781V47.2039C56.2815 47.352 56.3495 47.491 56.4826 47.621L56.8184 47.9399C56.9246 48.0351 57.0366 48.0835 57.1541 48.0835H57.9914C58.1132 48.0835 58.2478 48.0185 58.3937 47.8885L59.2069 47.151C59.3344 47.0346 59.3967 46.891 59.3967 46.7202V45.8935C59.3967 45.6925 59.3259 45.5293 59.1828 45.4038L58.3456 44.6436C58.2266 44.5272 58.0806 44.4668 57.905 44.4668ZM58.4915 52.0206H56.2687C56.1256 52.0206 56.0052 51.9692 55.9061 51.8649C55.8055 51.7591 55.7559 51.6291 55.7559 51.4735C55.7559 51.3208 55.8055 51.1939 55.9061 51.0896C56.0052 50.9853 56.1271 50.9339 56.2687 50.9339H58.4915C58.6275 50.9339 58.7521 50.8795 58.8711 50.7707L59.2196 50.4518C59.3386 50.3566 59.3967 50.2311 59.3967 50.0754V48.4024C58.9165 48.9192 58.4476 49.1792 57.9914 49.1792H57.2037C56.7957 49.1792 56.4288 49.0281 56.1044 48.7288L55.7191 48.3646C55.5916 48.2512 55.4839 48.085 55.3932 47.8689C55.3011 47.6527 55.2544 47.4396 55.2544 47.2295V45.4189C55.2544 45.1605 55.3011 44.9172 55.3932 44.6874C55.4839 44.4577 55.5944 44.2854 55.7191 44.1736L56.1398 43.7882C56.4416 43.5101 56.7971 43.371 57.2037 43.371H57.9432C58.3456 43.371 58.7125 43.5237 59.0426 43.8275L59.3981 44.1464L59.3854 43.9317C59.3854 43.7851 59.4364 43.6567 59.5384 43.5479C59.639 43.4406 59.7594 43.3861 59.8982 43.3861C60.0413 43.3861 60.1631 43.439 60.2666 43.5448C60.3714 43.6506 60.4224 43.7821 60.4224 43.9317V50.0709C60.4224 50.5364 60.2481 50.9339 59.8982 51.2649L59.4817 51.6488C59.3755 51.747 59.2267 51.8347 59.0341 51.9087C58.84 51.9828 58.6586 52.0206 58.4915 52.0206Z" fill="white"/>
</g>
</mask>
<g mask="url(#mask29_125_1324)">
<g id="Group_30">
<path id="Vector_45" d="M55.2544 43.371H60.4224V52.0296H55.2544V43.371Z" fill="#FEFEFE"/>
</g>
</g>
</g>
</g>
</g>
</g>
<g id="Clip path group_31">
<mask id="mask30_125_1324" style="mask-type:luminance" maskUnits="userSpaceOnUse" x="62" y="43" width="7" height="7">
<g id="ee920ff503">
<path id="Vector_46" d="M62.7993 43.3847H68.0183V49.6886H62.7993V43.3847Z" fill="white"/>
</g>
</mask>
<g mask="url(#mask30_125_1324)">
<g id="Group_31">
<g id="Clip path group_32">
<mask id="mask31_125_1324" style="mask-type:luminance" maskUnits="userSpaceOnUse" x="62" y="43" width="6" height="7">
<g id="8cdf8f964b">
<path id="Vector_47" d="M66.919 47.8553L66.8892 47.3913C66.8836 47.2357 66.834 47.1057 66.7362 47.0014C66.6385 46.8971 66.5181 46.8457 66.3764 46.8457H64.3506C64.2075 46.8457 64.0871 46.8986 63.9865 47.0044C63.8845 47.1102 63.8363 47.2417 63.8363 47.3913V48.0049C63.8363 48.1531 63.8887 48.2815 63.9893 48.3888C64.0899 48.4976 64.2103 48.5521 64.3506 48.5521H65.7998L66.919 47.8553ZM64.352 45.7243H66.3651C66.4741 45.7243 66.6342 45.75 66.8425 45.8029L66.8311 45.026C66.8311 44.8749 66.7816 44.7449 66.6824 44.6391C66.5818 44.5333 66.46 44.4804 66.3169 44.4804H64.3633C64.2259 44.4804 64.1055 44.4245 64.0021 44.3172C63.8986 44.2099 63.8491 44.0799 63.8491 43.9333C63.8491 43.7807 63.8986 43.6522 63.9992 43.5464C64.0984 43.4391 64.2202 43.3847 64.3633 43.3847H66.3155C66.7391 43.3847 67.1017 43.5449 67.4021 43.8608C67.7024 44.1782 67.8582 44.5681 67.8696 45.0291L67.9971 49.1279C67.9971 49.2805 67.9461 49.409 67.8455 49.5148C67.7435 49.6221 67.6231 49.675 67.4856 49.675C67.3383 49.675 67.2136 49.6221 67.1131 49.5148C67.0111 49.409 66.9601 49.279 66.9601 49.1279L66.0902 49.675H64.352C63.9199 49.675 63.553 49.5133 63.2498 49.1929C62.9481 48.8725 62.7993 48.478 62.7993 48.0185V47.3792C62.7993 46.9243 62.9509 46.5329 63.2555 46.2094C63.5586 45.886 63.9256 45.7243 64.352 45.7243Z" fill="white"/>
</g>
</mask>
<g mask="url(#mask31_125_1324)">
<g id="Group_32">
<path id="Vector_48" d="M62.7993 43.3847H67.9971V49.6674H62.7993V43.3847Z" fill="#FEFEFE"/>
</g>
</g>
</g>
</g>
</g>
</g>
<g id="Clip path group_33">
<mask id="mask32_125_1324" style="mask-type:luminance" maskUnits="userSpaceOnUse" x="38" y="19" width="15" height="18">
<g id="74d95e86c6">
<path id="Vector_49" d="M39.8834 19.493H51.2253V21.4034H39.8834V19.493ZM38.0928 21.4034H51.2253V23.3138H38.0928V21.4034ZM38.0928 23.3138H42.8684V32.8686H38.0928V23.3138ZM38.0928 32.8686H52.4195V34.779H38.0928V32.8686ZM39.8834 34.779H52.4195V36.6908H39.8834V34.779Z" fill="white"/>
</g>
</mask>
<g mask="url(#mask32_125_1324)">
<g id="Group_33">
<path id="Vector_50" d="M37.2896 16.7242H69.9182V37.5463H37.2896V16.7242Z" fill="#FEFEFE"/>
</g>
</g>
</g>
<g id="Clip path group_34">
<mask id="mask33_125_1324" style="mask-type:luminance" maskUnits="userSpaceOnUse" x="54" y="19" width="16" height="18">
<g id="9a2582051f">
<path id="Vector_51" d="M56.6002 19.493H69.1377V23.3138H56.6002V19.493ZM56.6002 23.3138H59.5851V24.5878H56.6002V23.3138ZM54.8081 24.5878H59.5851V26.4982H54.8081V24.5878ZM54.8081 26.4982H66.7478V30.3205H54.8081V26.4982ZM54.8081 30.3205H59.5851V32.8686H54.8081V30.3205ZM54.8081 32.8686H69.1363V36.6908H54.8081V32.8686Z" fill="white"/>
</g>
</mask>
<g mask="url(#mask33_125_1324)">
<g id="Group_34">
<path id="Vector_52" d="M37.2896 16.7242H69.9182V37.5463H37.2896V16.7242Z" fill="#FEFEFE"/>
</g>
</g>
</g>
<g id="Clip path group_35">
<mask id="mask34_125_1324" style="mask-type:luminance" maskUnits="userSpaceOnUse" x="52" y="17" width="3" height="7">
<g id="8c26ef6ddc">
<path id="Vector_53" d="M52.4209 17.5812H54.808V23.3138H52.4209V17.5812Z" fill="white"/>
</g>
</mask>
<g mask="url(#mask34_125_1324)">
<g id="Group_35">
<path id="Vector_54" d="M37.2896 16.7242H69.9182V37.5463H37.2896V16.7242Z" fill="#FEFEFE"/>
</g>
</g>
</g>
<g id="Clip path group_36">
<mask id="mask35_125_1324" style="mask-type:luminance" maskUnits="userSpaceOnUse" x="70" y="43" width="6" height="7">
<g id="8d08a8f5c9">
<path id="Vector_55" d="M70.251 43.371H75.6513V49.6734H70.251V43.371Z" fill="white"/>
</g>
</mask>
<g mask="url(#mask35_125_1324)">
<g id="Group_36">
<g id="Clip path group_37">
<mask id="mask36_125_1324" style="mask-type:luminance" maskUnits="userSpaceOnUse" x="70" y="43" width="6" height="7">
<g id="87e025de10">
<path id="Vector_56" d="M70.251 49.1248V43.9317C70.251 43.7791 70.302 43.6506 70.4011 43.5448C70.5003 43.439 70.6221 43.3861 70.7638 43.3861C71.0287 43.3861 71.1959 43.5237 71.2653 43.8018C71.5501 43.5161 71.8674 43.371 72.2159 43.371C72.6281 43.371 72.9653 43.5584 73.2288 43.9317C73.5546 43.5584 73.9131 43.371 74.3026 43.371C74.62 43.371 74.8962 43.4919 75.1286 43.7338C75.3623 43.9756 75.487 44.2824 75.504 44.6557L75.6499 49.1248C75.6499 49.2729 75.5975 49.4014 75.4969 49.5087C75.3963 49.6175 75.2745 49.6719 75.1371 49.6719C74.994 49.6719 74.8721 49.6175 74.7701 49.5087C74.6696 49.4014 74.6171 49.2729 74.6115 49.1248L74.4911 44.8325C74.4826 44.5967 74.416 44.4804 74.2885 44.4804C74.2191 44.4804 74.1468 44.5136 74.0746 44.5786L73.464 45.1257V49.1248C73.464 49.2729 73.4144 49.3999 73.3152 49.5041C73.2161 49.6084 73.0928 49.6598 72.9526 49.6598C72.8137 49.6598 72.6933 49.6069 72.5927 49.5011C72.4907 49.3938 72.4397 49.2638 72.4397 49.1127V44.76C72.4397 44.5726 72.3646 44.4789 72.2145 44.4789C72.1422 44.4789 72.0756 44.5061 72.0133 44.5635L71.2781 45.23V49.1248C71.2781 49.2729 71.2299 49.4014 71.1321 49.5087C71.0344 49.6175 70.9168 49.6719 70.7766 49.6719C70.6335 49.6719 70.5116 49.6175 70.4068 49.5087C70.3034 49.4014 70.251 49.2744 70.251 49.1248Z" fill="white"/>
</g>
</mask>
<g mask="url(#mask36_125_1324)">
<g id="Group_37">
<path id="Vector_57" d="M70.251 43.371H75.6513V49.6734H70.251V43.371Z" fill="#FEFEFE"/>
</g>
</g>
</g>
</g>
</g>
</g>
<g id="Clip path group_38">
<mask id="mask37_125_1324" style="mask-type:luminance" maskUnits="userSpaceOnUse" x="78" y="40" width="5" height="10">
<g id="30576a464e">
<path id="Vector_58" d="M78.438 40.5297H82.5917V49.6704H78.438V40.5297Z" fill="white"/>
</g>
</mask>
<g mask="url(#mask37_125_1324)">
<g id="Group_38">
<g id="Clip path group_39">
<mask id="mask38_125_1324" style="mask-type:luminance" maskUnits="userSpaceOnUse" x="78" y="40" width="5" height="10">
<g id="336cb3b482">
<path id="Vector_59" d="M79.9892 40.5297H80.5262C80.6692 40.5297 80.7897 40.5841 80.8888 40.6899C80.988 40.7957 81.039 40.9256 81.039 41.0768V41.5468C81.039 41.6995 80.988 41.8294 80.8888 41.9413C80.7897 42.0516 80.6692 42.1075 80.5262 42.1075H79.9765C79.8306 42.1075 79.7059 42.0501 79.6067 41.9367C79.5076 41.8249 79.4594 41.6995 79.4637 41.5604L79.4764 41.0783C79.4764 40.9256 79.526 40.7972 79.6266 40.6914C79.7257 40.5856 79.8462 40.5297 79.9892 40.5297ZM82.0774 49.6598H78.9494C78.8063 49.6598 78.6859 49.6069 78.5867 49.5011C78.4876 49.3953 78.438 49.2669 78.438 49.1142C78.438 48.9661 78.4876 48.8376 78.5867 48.7303C78.6859 48.6215 78.8092 48.5671 78.9494 48.5671H80.0006V44.4789H78.9622C78.8191 44.4789 78.6987 44.4244 78.5995 44.3156C78.5003 44.2083 78.4507 44.0799 78.4507 43.9317C78.4507 43.7806 78.5003 43.6491 78.5995 43.5388C78.6987 43.4269 78.8219 43.3725 78.9622 43.3725H80.5262C80.6692 43.3725 80.7897 43.4269 80.8888 43.5388C80.988 43.6491 81.039 43.7806 81.039 43.9317V48.5656H82.0647C82.2077 48.5656 82.3296 48.6185 82.4344 48.7243C82.5392 48.8301 82.5902 48.9616 82.5902 49.1112C82.5902 49.2623 82.5392 49.3923 82.4372 49.4996C82.3367 49.6054 82.2162 49.6583 82.0774 49.6583" fill="white"/>
</g>
</mask>
<g mask="url(#mask38_125_1324)">
<g id="Group_39">
<path id="Vector_60" d="M78.438 40.5297H82.5917V49.6523H78.438V40.5297Z" fill="#FEFEFE"/>
</g>
</g>
</g>
</g>
</g>
</g>
<g id="Clip path group_40">
<mask id="mask39_125_1324" style="mask-type:luminance" maskUnits="userSpaceOnUse" x="71" y="19" width="15" height="18">
<g id="7e0bd43428">
<path id="Vector_61" d="M73.3151 19.493H85.8526V21.4034H73.3151V19.493ZM71.5244 21.4034H85.8526V23.3153H71.5244V21.4034ZM71.5244 23.3153H76.3V26.4997H71.5244V23.3153ZM71.5244 26.4997H85.8526V30.3189H71.5244V26.4997ZM81.077 30.3189H85.8526V32.8686H81.077V30.3189ZM71.5244 32.8686H85.8526V34.7775H71.5244V32.8686ZM71.5244 34.7775H84.0619V36.6908H71.5244V34.7775Z" fill="white"/>
</g>
</mask>
<g mask="url(#mask39_125_1324)">
<g id="Group_40">
<path id="Vector_62" d="M71.5244 19.493H85.8526V36.6893H71.5244V19.493Z" fill="#FEFEFE"/>
</g>
</g>
</g>
<g id="Clip path group_41">
<mask id="mask40_125_1324" style="mask-type:luminance" maskUnits="userSpaceOnUse" x="85" y="41" width="6" height="9">
<g id="83c316dae3">
<path id="Vector_63" d="M85.7549 41.0118H90.41V49.684H85.7549V41.0118Z" fill="white"/>
</g>
</mask>
<g mask="url(#mask40_125_1324)">
<g id="Group_41">
<g id="Clip path group_42">
<mask id="mask41_125_1324" style="mask-type:luminance" maskUnits="userSpaceOnUse" x="85" y="41" width="6" height="9">
<g id="93c63680c1">
<path id="Vector_64" d="M87.8331 44.4804V49.1264C87.8331 49.279 87.7807 49.4075 87.6801 49.5133C87.5795 49.6206 87.4591 49.6735 87.3203 49.6735C87.1744 49.6735 87.0483 49.6206 86.9477 49.5133C86.8457 49.4075 86.7947 49.2775 86.7947 49.1264V44.4804H86.2677C86.1246 44.4804 86.0042 44.4245 85.905 44.3172C85.8059 44.2084 85.7549 44.0799 85.7549 43.9333C85.7549 43.7897 85.8002 43.6628 85.8923 43.5524C85.9844 43.4421 86.109 43.3862 86.2677 43.3862H86.806V42.9615C86.806 42.4008 86.986 41.9368 87.3458 41.5665C87.7056 41.1962 88.1561 41.0118 88.6945 41.0118H89.8972C90.0403 41.0118 90.1607 41.0678 90.2599 41.1751C90.3605 41.2839 90.41 41.4169 90.41 41.5726C90.41 41.7207 90.3576 41.8491 90.257 41.9564C90.1565 42.0653 90.036 42.1197 89.8972 42.1197H88.6945C88.4494 42.1197 88.2468 42.1983 88.0867 42.3539C87.9266 42.5111 87.8445 42.7121 87.8445 42.9615V43.3847H88.8701C89.009 43.3801 89.1294 43.433 89.23 43.5404C89.332 43.6492 89.383 43.7791 89.383 43.9318C89.383 44.0784 89.332 44.2069 89.23 44.3157C89.1294 44.423 89.009 44.4774 88.8701 44.4774L87.8331 44.4804Z" fill="white"/>
</g>
</mask>
<g mask="url(#mask41_125_1324)">
<g id="Group_42">
<path id="Vector_65" d="M85.7549 41.0118H90.41V49.6644H85.7549V41.0118Z" fill="#FEFEFE"/>
</g>
</g>
</g>
</g>
</g>
</g>
<g id="Clip path group_43">
<mask id="mask42_125_1324" style="mask-type:luminance" maskUnits="userSpaceOnUse" x="93" y="40" width="5" height="10">
<g id="4e69e6a4cd">
<path id="Vector_66" d="M93.5508 40.5297H97.7044V49.6704H93.5508V40.5297Z" fill="white"/>
</g>
</mask>
<g mask="url(#mask42_125_1324)">
<g id="Group_43">
<g id="Clip path group_44">
<mask id="mask43_125_1324" style="mask-type:luminance" maskUnits="userSpaceOnUse" x="93" y="40" width="5" height="10">
<g id="d538805a42">
<path id="Vector_67" d="M95.102 40.5297H95.6389C95.782 40.5297 95.9024 40.5841 96.0016 40.6899C96.1008 40.7957 96.1518 40.9256 96.1518 41.0768V41.5468C96.1518 41.6995 96.1008 41.8294 96.0016 41.9413C95.9024 42.0516 95.782 42.1075 95.6389 42.1075H95.0893C94.9434 42.1075 94.8187 42.0501 94.7195 41.9367C94.6204 41.8249 94.5722 41.6995 94.5764 41.5604L94.5892 41.0783C94.5892 40.9256 94.6388 40.7972 94.7394 40.6914C94.8385 40.5856 94.9589 40.5297 95.102 40.5297ZM97.1902 49.6598H94.0622C93.9191 49.6598 93.7987 49.6069 93.6995 49.5011C93.6004 49.3953 93.5508 49.2669 93.5508 49.1142C93.5508 48.9661 93.6004 48.8376 93.6995 48.7303C93.7987 48.6215 93.9219 48.5671 94.0622 48.5671H95.1134V44.4789H94.0749C93.9319 44.4789 93.8114 44.4244 93.7123 44.3156C93.6131 44.2083 93.5635 44.0799 93.5635 43.9317C93.5635 43.7806 93.6131 43.6491 93.7123 43.5388C93.8114 43.4269 93.9347 43.3725 94.0749 43.3725H95.6389C95.782 43.3725 95.9024 43.4269 96.0016 43.5388C96.1008 43.6491 96.1518 43.7806 96.1518 43.9317V48.5656H97.1774C97.3205 48.5656 97.4424 48.6185 97.5472 48.7243C97.652 48.8301 97.703 48.9616 97.703 49.1112C97.703 49.2623 97.652 49.3923 97.55 49.4996C97.4494 49.6054 97.329 49.6583 97.1902 49.6583" fill="white"/>
</g>
</mask>
<g mask="url(#mask43_125_1324)">
<g id="Group_44">
<path id="Vector_68" d="M93.5508 40.5297H97.7044V49.6523H93.5508V40.5297Z" fill="#FEFEFE"/>
</g>
</g>
</g>
</g>
</g>
</g>
<g id="Clip path group_45">
<mask id="mask44_125_1324" style="mask-type:luminance" maskUnits="userSpaceOnUse" x="88" y="19" width="15" height="18">
<g id="13e3e62f14">
<path id="Vector_69" d="M88.2397 19.493H102.566V23.3153H88.2397V19.493ZM93.0167 23.3153H97.7923V36.6908H93.0167V23.3153Z" fill="white"/>
</g>
</mask>
<g mask="url(#mask44_125_1324)">
<g id="Group_45">
<path id="Vector_70" d="M88.2397 19.493H102.568V36.6893H88.2397V19.493Z" fill="#FEFEFE"/>
</g>
</g>
</g>
<g id="Clip path group_46">
<mask id="mask45_125_1324" style="mask-type:luminance" maskUnits="userSpaceOnUse" x="100" y="43" width="6" height="7">
<g id="654aad213d">
<path id="Vector_71" d="M100.602 43.3635H105.798V49.6871H100.602V43.3635Z" fill="white"/>
</g>
</mask>
<g mask="url(#mask45_125_1324)">
<g id="Group_46">
<g id="Clip path group_47">
<mask id="mask46_125_1324" style="mask-type:luminance" maskUnits="userSpaceOnUse" x="100" y="43" width="6" height="7">
<g id="76410d2871">
<path id="Vector_72" d="M105.274 49.6735H103.08C102.693 49.6735 102.363 49.5496 102.089 49.3017L101.093 48.3752C100.777 48.0941 100.619 47.7133 100.619 47.2296V45.8029C100.602 45.3374 100.78 44.9339 101.156 44.5893L102.054 43.7641C102.343 43.5117 102.652 43.3847 102.983 43.3847H105.285C105.428 43.3847 105.549 43.4376 105.648 43.5449C105.747 43.6507 105.798 43.7807 105.798 43.9318C105.798 44.0875 105.747 44.2175 105.648 44.3218C105.549 44.4275 105.427 44.4789 105.285 44.4789H103.08C102.941 44.4789 102.809 44.5364 102.683 44.6543L101.858 45.4054C101.724 45.5278 101.657 45.6895 101.657 45.8936V47.2311C101.657 47.3747 101.711 47.4971 101.816 47.5954L102.721 48.4175C102.834 48.5249 102.986 48.5793 103.173 48.5793H105.274C105.411 48.5793 105.532 48.6337 105.634 48.7395C105.734 48.8453 105.787 48.9752 105.787 49.1264C105.787 49.2775 105.737 49.4075 105.637 49.5133C105.537 49.6206 105.416 49.6735 105.274 49.6735Z" fill="white"/>
</g>
</mask>
<g mask="url(#mask46_125_1324)">
<g id="Group_47">
<path id="Vector_73" d="M100.602 43.3847H105.798V49.6644H100.602V43.3847Z" fill="#FEFEFE"/>
</g>
</g>
</g>
</g>
</g>
</g>
<g id="Clip path group_48">
<mask id="mask47_125_1324" style="mask-type:luminance" maskUnits="userSpaceOnUse" x="108" y="43" width="6" height="7">
<g id="dbf7944aa3">
<path id="Vector_74" d="M108.138 43.3847H113.357V49.6886H108.138V43.3847Z" fill="white"/>
</g>
</mask>
<g mask="url(#mask47_125_1324)">
<g id="Group_48">
<g id="Clip path group_49">
<mask id="mask48_125_1324" style="mask-type:luminance" maskUnits="userSpaceOnUse" x="108" y="43" width="6" height="7">
<g id="53ef1dae53">
<path id="Vector_75" d="M112.259 47.8553L112.228 47.3913C112.224 47.2357 112.173 47.1057 112.075 47.0014C111.977 46.8971 111.857 46.8457 111.715 46.8457H109.689C109.546 46.8457 109.426 46.8986 109.325 47.0044C109.223 47.1102 109.175 47.2417 109.175 47.3913V48.0049C109.175 48.1531 109.228 48.2815 109.328 48.3888C109.43 48.4976 109.551 48.5521 109.689 48.5521H111.139L112.259 47.8553ZM109.691 45.7243H111.704C111.813 45.7243 111.973 45.75 112.181 45.8029L112.17 45.026C112.17 44.8749 112.12 44.7449 112.021 44.6391C111.921 44.5333 111.799 44.4804 111.656 44.4804H109.702C109.565 44.4804 109.444 44.4245 109.341 44.3172C109.239 44.2099 109.188 44.0799 109.188 43.9333C109.188 43.7807 109.239 43.6522 109.338 43.5464C109.437 43.4391 109.559 43.3847 109.702 43.3847H111.654C112.079 43.3847 112.441 43.5449 112.741 43.8608C113.041 44.1782 113.197 44.5681 113.208 45.0291L113.337 49.1279C113.337 49.2805 113.285 49.409 113.184 49.5148C113.082 49.6221 112.962 49.675 112.825 49.675C112.679 49.675 112.554 49.6221 112.452 49.5148C112.349 49.409 112.299 49.279 112.299 49.1279L111.429 49.675H109.691C109.259 49.675 108.892 49.5133 108.592 49.1929C108.291 48.8725 108.138 48.478 108.138 48.0185V47.3792C108.138 46.9243 108.291 46.5329 108.594 46.2094C108.898 45.886 109.264 45.7243 109.694 45.7243" fill="white"/>
</g>
</mask>
<g mask="url(#mask48_125_1324)">
<g id="Group_49">
<path id="Vector_76" d="M108.138 43.3847H113.336V49.6674H108.138V43.3847Z" fill="#FEFEFE"/>
</g>
</g>
</g>
</g>
</g>
</g>
<g id="Clip path group_50">
<mask id="mask49_125_1324" style="mask-type:luminance" maskUnits="userSpaceOnUse" x="104" y="19" width="16" height="18">
<g id="60bba77878">
<path id="Vector_77" d="M106.747 19.493H119.283V21.4034H106.747V19.493ZM104.957 21.4034H119.283V23.3153H104.957V21.4034ZM113.911 23.3153H119.283V29.6842H113.911V23.3153ZM104.957 23.3153H110.329V29.6842H104.957V23.3153ZM104.957 29.6842H119.283V30.3189H104.957V29.6842ZM104.957 30.3189H116.896V32.8686H104.957V30.3189ZM104.957 32.8686H110.926V36.6908H104.957V32.8686ZM113.313 32.8686H119.283V36.6908H113.313V32.8686Z" fill="white"/>
</g>
</mask>
<g mask="url(#mask49_125_1324)">
<g id="Group_50">
<path id="Vector_78" d="M104.957 19.493H119.285V36.6893H104.957V19.493Z" fill="#FEFEFE"/>
</g>
</g>
</g>
<g id="Clip path group_51">
<mask id="mask50_125_1324" style="mask-type:luminance" maskUnits="userSpaceOnUse" x="115" y="43" width="6" height="10">
<g id="3808daf281">
<path id="Vector_79" d="M115.715 43.3635H120.911V52.0252H115.715V43.3635Z" fill="white"/>
</g>
</mask>
<g mask="url(#mask50_125_1324)">
<g id="Group_51">
<g id="Clip path group_52">
<mask id="mask51_125_1324" style="mask-type:luminance" maskUnits="userSpaceOnUse" x="115" y="43" width="6" height="10">
<g id="5d6a5bf167">
<path id="Vector_80" d="M118.846 49.6735H118.194C117.807 49.6735 117.477 49.5496 117.204 49.3017L116.208 48.3752C115.891 48.0941 115.73 47.7133 115.73 47.2296V45.8029C115.715 45.3374 115.895 44.9339 116.269 44.5893L117.167 43.7641C117.456 43.5117 117.765 43.3847 118.096 43.3847H120.398C120.541 43.3847 120.662 43.4376 120.761 43.5449C120.86 43.6507 120.911 43.7807 120.911 43.9318C120.911 44.0875 120.86 44.2175 120.761 44.3218C120.662 44.4275 120.54 44.4789 120.398 44.4789H118.194C118.055 44.4789 117.922 44.5364 117.797 44.6543L116.971 45.4054C116.837 45.5278 116.769 45.6895 116.769 45.8936V47.2311C116.769 47.3747 116.821 47.4971 116.928 47.5954L117.833 48.4175C117.946 48.5249 118.098 48.5793 118.283 48.5793H120.387C120.524 48.5793 120.645 48.6337 120.747 48.7395C120.847 48.8453 120.9 48.9752 120.9 49.1264C120.9 49.2775 120.849 49.4075 120.75 49.5133C120.651 49.6206 120.529 49.6735 120.387 49.6735H119.873V51.4599C119.873 51.6156 119.823 51.7486 119.724 51.8574C119.623 51.9647 119.502 52.0191 119.36 52.0191H117.283C117.144 52.0191 117.024 51.9647 116.923 51.8574C116.821 51.7486 116.77 51.6201 116.77 51.4735C116.77 51.3209 116.82 51.1909 116.92 51.0791C117.02 50.9672 117.141 50.9128 117.283 50.9128H118.846V49.6735Z" fill="white"/>
</g>
</mask>
<g mask="url(#mask51_125_1324)">
<g id="Group_52">
<path id="Vector_81" d="M115.715 43.3847H120.911V52.0252H115.715V43.3847Z" fill="#FEFEFE"/>
</g>
</g>
</g>
</g>
</g>
</g>
<g id="Clip path group_53">
<mask id="mask52_125_1324" style="mask-type:luminance" maskUnits="userSpaceOnUse" x="123" y="41" width="6" height="9">
<g id="fd0d7afaa1">
<path id="Vector_82" d="M123.251 41.0133H128.486V49.6961H123.251V41.0133Z" fill="white"/>
</g>
</mask>
<g mask="url(#mask52_125_1324)">
<g id="Group_53">
<g id="Clip path group_54">
<mask id="mask53_125_1324" style="mask-type:luminance" maskUnits="userSpaceOnUse" x="123" y="41" width="6" height="9">
<g id="8bebffc953">
<path id="Vector_83" d="M127.373 47.8552L127.341 47.3913C127.337 47.2356 127.286 47.1056 127.188 47.0013C127.091 46.897 126.97 46.8457 126.829 46.8457H124.803C124.66 46.8457 124.539 46.8986 124.439 47.0044C124.337 47.1101 124.288 47.2416 124.288 47.3913V48.0049C124.288 48.153 124.341 48.2815 124.441 48.3888C124.543 48.4976 124.664 48.552 124.803 48.552H126.252L127.373 47.8552ZM128.237 42.0425L127.307 42.6426C127.194 42.703 127.102 42.7332 127.033 42.7332H126.708C126.677 42.7332 126.622 42.7196 126.542 42.6939L124.98 42.1332H124.834L124.058 42.6426C123.964 42.703 123.868 42.7332 123.77 42.7332C123.633 42.7332 123.512 42.6758 123.41 42.5564C123.31 42.4385 123.257 42.3055 123.257 42.1529C123.257 41.9609 123.341 41.8113 123.508 41.704L124.43 41.104C124.508 41.0526 124.599 41.0269 124.705 41.0269H125.035C125.092 41.0269 125.144 41.0345 125.194 41.0526L126.793 41.6269H126.885L127.686 41.104C127.781 41.0435 127.873 41.0133 127.966 41.0133C128.109 41.0133 128.231 41.0707 128.333 41.1886C128.434 41.308 128.485 41.441 128.485 41.5937C128.485 41.7856 128.402 41.9352 128.235 42.0425M124.804 45.7242H126.817C126.926 45.7242 127.086 45.7499 127.295 45.8028L127.283 45.026C127.283 44.8733 127.234 44.7449 127.135 44.6391C127.034 44.5333 126.912 44.4804 126.769 44.4804H124.815C124.678 44.4804 124.558 44.4245 124.454 44.3171C124.352 44.2083 124.301 44.0799 124.301 43.9333C124.301 43.7806 124.352 43.6521 124.451 43.5464C124.551 43.439 124.672 43.3861 124.815 43.3861H126.768C127.193 43.3861 127.554 43.5464 127.854 43.8622C128.155 44.1796 128.31 44.5695 128.322 45.0305L128.451 49.1293C128.451 49.282 128.398 49.4104 128.298 49.5177C128.196 49.6235 128.075 49.6764 127.938 49.6764C127.792 49.6764 127.667 49.6235 127.565 49.5177C127.462 49.4104 127.412 49.2805 127.412 49.1293L126.542 49.6764H124.804C124.372 49.6764 124.005 49.5147 123.705 49.1943C123.404 48.8739 123.251 48.4779 123.251 48.0185V47.3792C123.251 46.9242 123.404 46.5328 123.708 46.2094C124.011 45.8859 124.378 45.7242 124.807 45.7242" fill="white"/>
</g>
</mask>
<g mask="url(#mask53_125_1324)">
<g id="Group_54">
<path id="Vector_84" d="M123.251 41.0133H128.486V49.6734H123.251V41.0133Z" fill="#FEFEFE"/>
</g>
</g>
</g>
</g>
</g>
</g>
<g id="Clip path group_55">
<mask id="mask54_125_1324" style="mask-type:luminance" maskUnits="userSpaceOnUse" x="121" y="19" width="15" height="18">
<g id="e82bdc436d">
<path id="Vector_85" d="M123.464 19.493H134.209V21.4034H123.464V19.493ZM121.672 21.4034H135.999V23.3153H121.672V21.4034ZM130.627 23.3153H135.999V29.6842H130.627V23.3153ZM121.672 23.3153H127.047V29.6842H121.672V23.3153ZM121.672 29.6842H135.999V32.8686H121.672V29.6842ZM121.672 32.8686H127.642V36.6908H121.672V32.8686ZM130.032 32.8686H135.999V36.6908H130.032V32.8686Z" fill="white"/>
</g>
</mask>
<g mask="url(#mask54_125_1324)">
<g id="Group_55">
<path id="Vector_86" d="M121.672 19.493H136V36.6893H121.672V19.493Z" fill="#FEFEFE"/>
</g>
</g>
</g>
<g id="Clip path group_56">
<mask id="mask55_125_1324" style="mask-type:luminance" maskUnits="userSpaceOnUse" x="130" y="43" width="6" height="7">
<g id="bf83e97c4f">
<path id="Vector_87" d="M130.819 43.3635H136V49.6659H130.819V43.3635Z" fill="white"/>
</g>
</mask>
<g mask="url(#mask55_125_1324)">
<g id="Group_56">
<g id="Clip path group_57">
<mask id="mask56_125_1324" style="mask-type:luminance" maskUnits="userSpaceOnUse" x="130" y="43" width="7" height="7">
<g id="d8d122995b">
<path id="Vector_88" d="M133.996 44.4669C134.158 44.4669 134.302 44.5213 134.423 44.6301L134.783 44.9369C134.911 45.0412 134.973 45.2029 134.973 45.4175V47.6347C134.973 47.8206 134.911 47.9672 134.783 48.0715L134.472 48.3647C134.328 48.4992 134.17 48.5672 133.994 48.5672H132.806C132.651 48.5672 132.531 48.5279 132.446 48.4478L132.06 48.0972C131.926 47.9808 131.858 47.8206 131.858 47.6211V45.4039C131.858 45.2211 131.92 45.073 132.048 44.9611L132.396 44.6437C132.524 44.5273 132.701 44.4669 132.934 44.4669H133.996ZM134.037 43.3712C134.027 43.3712 134.017 43.3712 134.008 43.3712H132.806C132.317 43.3712 131.865 43.5843 131.447 44.0074C131.029 44.4306 130.819 44.881 130.819 45.3601V47.674C130.819 48.1516 131.033 48.602 131.461 49.0267C131.889 49.4499 132.337 49.6615 132.806 49.6615H134.008C134.469 49.6615 134.916 49.4529 135.35 49.0357C135.782 48.6216 135.997 48.1712 136.002 47.6816V45.351C136 44.8538 135.782 44.3989 135.35 43.9833C134.925 43.5752 134.487 43.3712 134.037 43.3712Z" fill="white"/>
</g>
</mask>
<g mask="url(#mask56_125_1324)">
<g id="Group_57">
<path id="Vector_89" d="M130.819 43.3635H136V49.6659H130.819V43.3635Z" fill="#FEFEFE"/>
</g>
</g>
</g>
</g>
</g>
</g>
</g>
<defs>
<clipPath id="clip0_125_1324">
<rect width="136" height="60" fill="white"/>
</clipPath>
</defs>
</svg>
