<svg width="35" height="37" viewBox="0 0 35 37" fill="none" xmlns="http://www.w3.org/2000/svg">
<path id="Vector" d="M31.1282 25.8817C30.6445 26.4371 29.8024 27.315 28.4407 27.315C26.5416 27.315 25.9145 25.9355 25.3412 24.4842L22.4745 17.443L19.6078 24.4842C19.142 25.6667 18.6045 27.315 16.5082 27.315C14.412 27.315 13.8924 25.6667 13.3907 24.4842L8.58908 12.6234H12.6382L16.5082 22.388L19.3928 15.275C19.8407 14.1463 20.3782 12.4442 22.4745 12.4442C24.517 12.4442 25.0903 14.1463 25.5562 15.275L28.6916 22.9792C30.2862 20.5425 30.967 17.6042 30.5728 14.7196C30.1845 11.8303 28.7579 9.18097 26.5595 7.26629C24.3681 5.34461 21.5549 4.28169 18.6403 4.27421C15.6124 4.25629 12.6741 5.20587 10.1837 6.96171C7.76352 8.74378 5.95971 11.2366 5.02366 14.0925C4.09199 16.9592 4.09199 20.0588 5.02366 22.9255C5.95533 25.7921 7.78283 28.2825 10.2374 30.0384C12.692 31.8121 15.6303 32.7438 18.6403 32.7259C19.9482 32.7259 21.2382 32.5467 22.4924 32.1884V35.9688C21.2203 36.2555 19.9303 36.4167 18.6403 36.4167C14.8599 36.4167 11.1512 35.2342 8.06949 33.0125C4.98783 30.7909 2.69449 27.6555 1.52991 24.0542C0.334728 20.4489 0.328448 16.5551 1.51199 12.9459C2.69449 9.34462 4.98783 6.20921 8.06949 3.98754C11.1332 1.76587 14.842 0.583374 18.6403 0.583374C27.312 0.583374 34.3712 7.64254 34.3712 16.3321C34.3712 19.7721 33.2245 23.1405 31.1282 25.8817Z" fill="#6A6A6A"/>
</svg>
